<?xml version="1.0" standalone="no"?>
<!DOCTYPE svg PUBLIC "-//W3C//DTD SVG 20010904//EN"
 "http://www.w3.org/TR/2001/REC-SVG-20010904/DTD/svg10.dtd">
<svg version="1.0" xmlns="http://www.w3.org/2000/svg"
 width="700.000000pt" height="700.000000pt" viewBox="0 0 700.000000 700.000000"
 preserveAspectRatio="xMidYMid meet">
<metadata>
Created by potrace 1.11, written by Peter Selinger 2001-2013
</metadata>
<g transform="translate(0.000000,700.000000) scale(0.100000,-0.100000)"
fill="#000000" stroke="none">
<path d="M1880 6829 c-131 -13 -314 -52 -445 -94 -113 -37 -330 -136 -439
-202 -83 -50 -228 -158 -302 -226 -251 -230 -461 -601 -559 -987 -51 -202 -59
-278 -59 -555 -1 -227 2 -276 22 -387 101 -563 371 -1058 848 -1558 76 -80
483 -503 904 -940 421 -437 918 -955 1104 -1150 187 -195 386 -403 443 -463
l103 -107 103 107 c57 60 305 319 553 578 247 258 748 780 1114 1160 366 380
723 751 794 825 468 491 738 989 838 1548 20 111 23 160 22 387 0 202 -4 282
-17 360 -88 501 -313 929 -637 1213 -181 158 -470 321 -703 396 -552 177
-1160 125 -1595 -135 -158 -95 -291 -210 -430 -374 l-42 -50 -42 50 c-283 333
-593 511 -1024 585 -140 24 -411 34 -554 19z m1580 -2140 c0 -9 -87 -470 -106
-561 l-6 -28 261 0 c148 0 261 4 261 9 0 5 25 138 55 296 30 157 55 288 55
291 0 2 65 4 145 4 80 0 145 -2 145 -4 0 -5 -98 -533 -106 -568 l-6 -28 241 0
241 0 0 -130 0 -130 -265 0 -265 0 -5 -22 c-20 -86 -111 -579 -107 -583 3 -3
124 -5 269 -5 l263 0 0 -130 0 -130 -295 0 c-179 0 -295 -4 -295 -9 0 -11 -98
-521 -107 -558 -5 -23 -8 -23 -150 -23 l-145 0 5 23 c11 43 107 544 107 556 0
8 -65 11 -257 9 l-258 -3 -56 -290 -56 -290 -146 -3 c-135 -2 -145 -1 -141 15
8 36 104 556 104 564 0 5 -107 9 -240 9 l-240 0 0 130 0 130 267 2 268 3 56
300 56 300 -269 3 -268 2 0 130 0 130 294 0 294 0 10 48 c6 26 32 161 58 300
l48 252 143 0 c96 0 143 -4 143 -11z"/>
<path d="M3291 3788 c-44 -223 -101 -527 -101 -541 0 -16 22 -17 254 -17 234
0 255 1 260 18 3 9 28 139 56 287 28 149 53 278 56 288 5 16 -12 17 -255 17
l-260 0 -10 -52z"/>
</g>
</svg>
